# xmcd
#
# Track frame offsets: 
#        150
#        20955
#        33949
#        51502
#        73183
#        100438
#        127400
#        165864
#        175952
#        217789
#        232347
#        245993
#        276936
#        306564
#
# Disc length: 4548 seconds
#
# Revision: 0
# Processed by: cddbd v1.5.2PL0 Copyright (c) Steve Scherf et al.
# Submitted via: ExactAudioCopy v0.99pb5
#
DISCID=e211c20e
DTITLE=The Kleptones - Downtime
DYEAR=2010
DGENRE=Acid Punk
TTITLE0=Interlude
TTITLE1=Freeze
TTITLE2=Seed Of Idumea
TTITLE3=Stay
TTITLE4=Untired
TTITLE5=Hammer
TTITLE6=Black Medicine
TTITLE7=Unbroken
TTITLE8=Correspondence
TTITLE9=Incandescence
TTITLE10=Exit
TTITLE11=Entrance
TTITLE12=Killing Jah
TTITLE13=Resignation
EXTD=
EXTT0=
EXTT1=
EXTT2=
EXTT3=
EXTT4=
EXTT5=
EXTT6=
EXTT7=
EXTT8=
EXTT9=
EXTT10=
EXTT11=
EXTT12=
EXTT13=
PLAYORDER=
